<?xml version="1.0" encoding="UTF-8" standalone="no"?>
<!-- Created with Inkscape (http://www.inkscape.org/) -->

<svg
   width="210mm"
   height="297mm"
   viewBox="0 0 210 297"
   version="1.1"
   id="svg5"
   inkscape:version="1.2.1 (9c6d41e4, 2022-07-14)"
   sodipodi:docname="drawing.svg"
   xmlns:inkscape="http://www.inkscape.org/namespaces/inkscape"
   xmlns:sodipodi="http://sodipodi.sourceforge.net/DTD/sodipodi-0.dtd"
   xmlns="http://www.w3.org/2000/svg"
   xmlns:svg="http://www.w3.org/2000/svg">
  <sodipodi:namedview
     id="namedview7"
     pagecolor="#ffffff"
     bordercolor="#666666"
     borderopacity="1.0"
     inkscape:showpageshadow="2"
     inkscape:pageopacity="0.0"
     inkscape:pagecheckerboard="0"
     inkscape:deskcolor="#d1d1d1"
     inkscape:document-units="mm"
     showgrid="false"
     inkscape:zoom="0.5946522"
     inkscape:cx="326.24112"
     inkscape:cy="257.29325"
     inkscape:window-width="1389"
     inkscape:window-height="694"
     inkscape:window-x="0"
     inkscape:window-y="25"
     inkscape:window-maximized="0"
     inkscape:current-layer="layer1" />
  <defs
     id="defs2" />
  <g
     inkscape:label="Layer 1"
     inkscape:groupmode="layer"
     id="layer1">
    <g
       id="g1956"
       inkscape:export-filename="logo-reverse.png"
       inkscape:export-xdpi="40.148911"
       inkscape:export-ydpi="40.148911">
      <rect
         style="fill:#d45500;stroke:none;stroke-width:0.499999;stroke-linejoin:round"
         id="rect1934"
         width="80.978706"
         height="78.309082"
         x="87.652771"
         y="33.37035" />
      <path
         id="path444"
         style="fill:#ffffff;stroke:none;stroke-width:0.499999;stroke-linejoin:round"
         d="M 120.5272,32.035453 H 87.292282 v 80.978537 h 51.995888 l -2.59841,-1.47946 2.42977,-4.62383 c -0.37623,0.10462 -0.74497,0.20074 -1.10533,0.2885 -0.36035,0.0877 -0.71251,0.1674 -1.05698,0.2383 -0.34446,0.0709 -0.68114,0.133 -1.00972,0.18704 -0.32859,0.0541 -0.64923,0.0997 -0.96192,0.13685 -0.31269,0.0372 -0.61732,0.0658 -0.91413,0.0861 -0.2968,0.0203 -0.5854,0.0325 -0.86632,0.0359 -0.28092,0.003 -0.55403,-0.001 -0.81905,-0.0148 -0.26504,-0.0134 -0.52212,-0.0353 -0.77126,-0.0655 -0.33133,-0.042 -0.66304,-0.0932 -0.99468,-0.15376 -0.33165,-0.0605 -0.66327,-0.13022 -0.99523,-0.20924 -0.33196,-0.079 -0.66403,-0.16771 -0.9963,-0.26523 -0.33225,-0.0975 -0.66478,-0.20417 -0.99737,-0.3202 -0.33258,-0.11604 -0.66554,-0.24113 -0.99843,-0.37568 -0.3329,-0.13455 -0.66578,-0.27862 -0.99898,-0.43169 -0.33321,-0.15305 -0.66654,-0.31506 -1.00007,-0.48663 -0.33352,-0.17157 -0.66729,-0.35256 -1.00112,-0.54265 -0.33538,-0.19095 -0.66238,-0.38532 -0.98126,-0.58332 -0.31888,-0.19801 -0.62947,-0.39942 -0.93185,-0.60446 -0.30237,-0.20506 -0.59656,-0.41404 -0.88243,-0.62613 -0.28587,-0.2121 -0.56364,-0.4276 -0.83302,-0.64674 -0.26937,-0.21913 -0.5302,-0.44169 -0.78307,-0.66787 -0.25287,-0.22618 -0.49782,-0.45577 -0.7342,-0.689 -0.23636,-0.23323 -0.46438,-0.46987 -0.68425,-0.71013 -0.21986,-0.24027 -0.43147,-0.48449 -0.63483,-0.731808 -0.20337,-0.247315 -0.39856,-0.498046 -0.58542,-0.752406 -0.18686,-0.254361 -0.36513,-0.512136 -0.53548,-0.773541 -0.17036,-0.261406 -0.33274,-0.526236 -0.48661,-0.794686 -0.15385,-0.26845 -0.29929,-0.540315 -0.43665,-0.81581 -0.13734,-0.275495 -0.26638,-0.554936 -0.38724,-0.837476 -0.12085,-0.282541 -0.23347,-0.568506 -0.33782,-0.85809 -0.10436,-0.289575 -0.20058,-0.582595 -0.28842,-0.879214 -0.0878,-0.296629 -0.16765,-0.596684 -0.239,-0.900358 -0.0698,-0.302795 -0.13259,-0.605263 -0.18851,-0.907219 -0.0559,-0.301967 -0.10458,-0.603442 -0.14663,-0.904581 -0.0421,-0.301149 -0.0777,-0.602154 -0.10581,-0.902475 -0.0281,-0.30031 -0.0491,-0.599802 -0.0634,-0.899294 -0.0143,-0.299493 -0.0216,-0.598525 -0.022,-0.897189 -4.4e-4,-0.298664 0.006,-0.597226 0.0193,-0.895072 0.0134,-0.297836 0.0339,-0.595406 0.0612,-0.892424 0.0273,-0.297018 0.0614,-0.593596 0.10259,-0.889785 0.0412,-0.29619 0.0893,-0.591777 0.14447,-0.887148 0.0551,-0.295362 0.1169,-0.590488 0.18583,-0.885031 0.0689,-0.294541 0.14492,-0.588673 0.22771,-0.882389 0.0829,-0.293717 0.17242,-0.586856 0.26909,-0.879748 0.0967,-0.292892 0.20042,-0.585567 0.31097,-0.877634 0.11055,-0.292068 0.22791,-0.583751 0.35233,-0.874992 0.12442,-0.291243 0.25592,-0.581933 0.39422,-0.872351 0.13829,-0.290418 0.28341,-0.580116 0.43558,-0.869709 0.17022,-0.323951 0.34411,-0.639869 0.52152,-0.94738 0.17738,-0.307511 0.35842,-0.606641 0.54299,-0.897712 0.18457,-0.291071 0.37274,-0.573942 0.56447,-0.848574 0.19175,-0.274631 0.38704,-0.541243 0.58596,-0.799434 0.19891,-0.258192 0.40136,-0.508016 0.60745,-0.749768 0.20609,-0.241751 0.41566,-0.475316 0.62894,-0.700627 0.21326,-0.225312 0.42996,-0.442618 0.6504,-0.65149 0.22044,-0.20887 0.44483,-0.409389 0.67244,-0.601821 0.22761,-0.192431 0.45859,-0.376691 0.69337,-0.552683 0.23479,-0.175991 0.47344,-0.343991 0.7154,-0.503543 0.24196,-0.159551 0.4872,-0.310764 0.73634,-0.453876 0.24914,-0.143111 0.50206,-0.278064 0.75837,-0.404736 0.25631,-0.126672 0.51584,-0.244838 0.77932,-0.35507 0.26347,-0.110232 0.53068,-0.212138 0.80132,-0.30593 0.27066,-0.09379 0.545,-0.179439 0.82282,-0.256792 0.27783,-0.07735 0.55931,-0.14674 0.84431,-0.207651 0.28655,-0.06003 0.57347,-0.112959 0.86094,-0.158513 0.28748,-0.04555 0.57524,-0.08358 0.86365,-0.114658 0.28839,-0.03107 0.57751,-0.05473 0.86685,-0.07133 0.28933,-0.0166 0.57928,-0.02641 0.86954,-0.02854 0.29026,-0.0021 0.58105,0.003 0.87223,0.01533 0.29119,0.01235 0.5828,0.03235 0.87491,0.05918 0.29211,0.02683 0.58457,0.06067 0.8776,0.101981 0.29304,0.04131 0.58632,0.09005 0.88029,0.145832 0.29396,0.05579 0.58862,0.118897 0.88351,0.189158 0.29488,0.07026 0.59037,0.147748 0.88619,0.232487 0.29582,0.08474 0.59213,0.176596 0.88887,0.275813 0.29675,0.09921 0.5939,0.205446 0.89157,0.319139 0.29767,0.113693 0.59565,0.234825 0.89425,0.362995 0.29859,0.12817 0.59741,0.263675 0.89693,0.406322 0.29952,0.142647 0.59971,0.292525 0.90016,0.449648 0.30045,0.157125 0.60147,0.321376 0.90284,0.492977 0.29366,0.167201 0.58103,0.337355 0.86256,0.510412 0.28155,0.173058 0.55716,0.348934 0.82658,0.527848 0.26943,0.178915 0.53275,0.361043 0.79005,0.545814 0.25732,0.184771 0.50887,0.372094 0.75408,0.562722 0.24519,0.190627 0.48392,0.384202 0.717,0.580686 0.23309,0.196484 0.46006,0.395782 0.68103,0.598123 0.22097,0.202341 0.43619,0.407889 0.64504,0.616087 0.20886,0.208198 0.41177,0.41947 0.60853,0.633525 0.19983,0.215814 0.39339,0.434573 0.58112,0.656244 0.18772,0.221671 0.36953,0.446152 0.54514,0.673681 0.17562,0.227528 0.34513,0.457732 0.50863,0.691116 0.16349,0.233386 0.32071,0.469842 0.47209,0.709083 0.15139,0.239241 0.29685,0.48142 0.43611,0.726518 0.13928,0.245098 0.27244,0.493 0.39959,0.743955 0.12716,0.250954 0.24858,0.505108 0.36362,0.76192 0.11504,0.256811 0.22361,0.516688 0.32655,0.779356 l 7.86133,-14.960996 11.34273,6.458881 V 32.035453 h -32.16395 l -10.10368,13.998293 6.17328,4.312614 -8.18144,11.334745 -6.17327,-4.312614 -10.38564,14.388235 c -0.31221,0.432537 -0.59016,0.833828 -0.83464,1.203644 -0.12224,0.184907 -0.23628,0.361791 -0.34159,0.531018 -0.10531,0.169228 -0.20219,0.330975 -0.29056,0.484522 -0.0883,0.153547 -0.16811,0.299101 -0.23953,0.436968 -0.0715,0.137867 -0.13456,0.267755 -0.18907,0.389942 -0.0545,0.122187 -0.10043,0.23641 -0.13802,0.342917 -0.0376,0.106506 -0.0669,0.205593 -0.0875,0.29642 -0.0321,0.140221 -0.055,0.27677 -0.0688,0.409492 -0.0137,0.132722 -0.0181,0.26155 -0.0134,0.386771 0.004,0.125222 0.0184,0.246331 0.0414,0.364052 0.023,0.117722 0.0553,0.232168 0.0967,0.342388 0.0414,0.110222 0.0918,0.21642 0.15144,0.31914 0.0598,0.102721 0.1287,0.201728 0.2068,0.296949 0.0781,0.09522 0.16509,0.186507 0.26155,0.274227 0.0965,0.08772 0.20258,0.171816 0.31741,0.252036 0.10332,0.0722 0.21562,0.142797 0.33677,0.211879 0.12113,0.06908 0.25098,0.136932 0.38992,0.202897 0.13894,0.06597 0.28689,0.130009 0.44363,0.192858 0.15674,0.06285 0.32228,0.124143 0.49681,0.183875 0.17453,0.05973 0.35818,0.118277 0.55051,0.174893 0.19233,0.05661 0.39356,0.111355 0.60369,0.164853 0.21012,0.0535 0.42893,0.105489 0.65686,0.155872 0.22791,0.05038 0.46485,0.0991 0.71055,0.146359 l -6.91391,11.301981 c -0.42255,-0.137307 -0.83762,-0.27892 -1.24497,-0.425338 -0.40733,-0.146418 -0.80718,-0.297294 -1.19931,-0.452822 -0.39213,-0.155528 -0.77674,-0.315657 -1.15366,-0.480296 -0.37691,-0.164628 -0.7463,-0.334021 -1.10801,-0.50777 -0.361712,-0.173738 -0.715864,-0.351863 -1.062358,-0.534712 -0.346501,-0.182858 -0.684885,-0.370237 -1.016171,-0.562196 -0.331284,-0.191959 -0.654982,-0.3886 -0.971051,-0.589669 -0.316081,-0.20107 -0.625072,-0.406965 -0.925937,-0.617144 -0.349099,-0.24387 -0.68082,-0.487412 -0.995767,-0.730751 -0.157469,-0.121664 -0.31081,-0.243041 -0.459745,-0.364572 -0.148925,-0.121531 -0.293569,-0.243185 -0.433961,-0.364583 -0.140392,-0.121398 -0.276336,-0.242796 -0.408185,-0.364051 -0.131849,-0.121265 -0.259634,-0.242399 -0.38294,-0.363524 -0.123315,-0.121125 -0.242391,-0.242005 -0.357164,-0.362995 -0.114773,-0.12099 -0.225149,-0.242139 -0.331388,-0.362995 -0.10623,-0.120855 -0.207908,-0.241218 -0.305604,-0.361938 -0.09769,-0.120721 -0.191205,-0.241353 -0.280358,-0.361938 -0.08918,-0.120585 -0.173962,-0.241489 -0.254573,-0.361939 -0.08065,-0.12045 -0.15726,-0.240566 -0.229338,-0.360881 -0.07213,-0.120316 -0.140017,-0.240701 -0.203551,-0.360882 -0.0635,-0.12018 -0.122787,-0.240307 -0.177777,-0.360353 -0.05498,-0.120046 -0.105544,-0.239914 -0.152001,-0.359825 -0.04645,-0.11991 -0.08886,-0.240048 -0.126747,-0.359824 -0.03794,-0.119777 -0.07285,-0.24057 -0.105273,-0.362468 -0.03243,-0.121896 -0.06173,-0.24479 -0.08866,-0.368806 -0.02692,-0.124018 -0.05114,-0.24901 -0.07255,-0.375148 -0.02131,-0.126138 -0.04002,-0.25323 -0.05582,-0.381489 -0.0158,-0.128258 -0.0289,-0.25745 -0.03918,-0.387828 -0.01039,-0.130379 -0.01777,-0.262199 -0.02256,-0.394698 -0.0052,-0.132498 -0.0062,-0.26589 -0.0062,-0.40051 7.59e-4,-0.134619 0.0042,-0.27011 0.0107,-0.406849 0.0062,-0.136741 0.01507,-0.27486 0.02681,-0.41372 0.01185,-0.13886 0.02671,-0.278551 0.04406,-0.419532 0.03471,-0.281961 0.08024,-0.568169 0.136952,-0.858612 0.05675,-0.290443 0.124688,-0.585051 0.203563,-0.883975 0.07889,-0.298924 0.168651,-0.602458 0.269611,-0.909866 0.0528,-0.15449 0.110159,-0.313012 0.172414,-0.475539 0.06226,-0.162526 0.129146,-0.328754 0.20087,-0.499316 0.07171,-0.170562 0.148676,-0.345024 0.229868,-0.523621 0.08118,-0.178597 0.166605,-0.361295 0.257265,-0.547928 0.18132,-0.373265 0.381796,-0.762834 0.601,-1.168241 0.219205,-0.405406 0.457242,-0.826858 0.714329,-1.264407 0.257088,-0.437547 0.533215,-0.890881 0.828187,-1.36057 0.294971,-0.46969 0.60919,-0.955433 0.942045,-1.457264 0.332855,-0.501832 0.684645,-1.019985 1.055373,-1.553957 0.370738,-0.533972 0.76009,-1.084008 1.168701,-1.650122 l 10.302941,-14.273577 -4.13395,-2.888109 8.18144,-11.334745 4.13395,2.887581 z m 16.67654,50.938189 c -0.11145,0.0012 -0.223,0.0051 -0.33461,0.01216 -0.1116,0.007 -0.22338,0.01733 -0.33513,0.03011 -0.11176,0.01279 -0.22377,0.02845 -0.33568,0.04702 -0.11192,0.01858 -0.22362,0.03957 -0.33569,0.06394 -0.11207,0.02437 -0.22452,0.05174 -0.33675,0.0819 -0.11223,0.03016 -0.22326,0.06463 -0.33407,0.103562 -0.11081,0.03894 -0.22144,0.08227 -0.33084,0.129981 -0.10941,0.04771 -0.21803,0.09992 -0.32602,0.156399 -0.10798,0.05648 -0.21514,0.117559 -0.3217,0.182819 -0.10659,0.06525 -0.21226,0.134674 -0.31742,0.208709 -0.10517,0.07404 -0.20991,0.152846 -0.31367,0.235657 -0.10372,0.08281 -0.20648,0.16996 -0.30882,0.261546 -0.10238,0.09158 -0.20414,0.187604 -0.30506,0.287969 -0.10094,0.100304 -0.20126,0.204719 -0.30077,0.313848 -0.0995,0.109138 -0.19837,0.222899 -0.29647,0.34081 -0.0981,0.117912 -0.19549,0.240005 -0.29218,0.366689 -0.0967,0.126695 -0.1926,0.257653 -0.28787,0.39311 -0.0953,0.135467 -0.18973,0.275301 -0.28359,0.419541 -0.0938,0.14423 -0.18684,0.292928 -0.27928,0.445941 -0.0924,0.153023 -0.18449,0.310586 -0.27553,0.472372 -0.0911,0.161796 -0.18107,0.328223 -0.27069,0.498792 -0.0839,0.159516 -0.16431,0.317559 -0.24062,0.474478 -0.0763,0.156929 -0.14872,0.312754 -0.21752,0.467086 -0.0688,0.154332 -0.13368,0.306905 -0.19496,0.45863 -0.0613,0.151735 -0.11863,0.302631 -0.1724,0.451769 -0.0538,0.149127 -0.10414,0.296762 -0.15039,0.443303 -0.0462,0.14654 -0.0885,0.291967 -0.12729,0.43591 -0.0387,0.143944 -0.074,0.286118 -0.10527,0.427455 -0.0312,0.141346 -0.0586,0.281844 -0.0822,0.420594 -0.0237,0.138749 -0.0434,0.275985 -0.0597,0.412127 -0.0163,0.136153 -0.0289,0.271191 -0.0376,0.404746 -0.008,0.133545 -0.0133,0.265853 -0.0145,0.396811 -0.001,0.130948 0.001,0.260526 0.007,0.388877 0.006,0.128361 0.0163,0.255199 0.0301,0.380963 0.0138,0.125764 0.0318,0.250393 0.0533,0.37356 0.0215,0.123167 0.0464,0.245076 0.0752,0.365646 0.0289,0.12056 0.0619,0.239729 0.0983,0.357702 0.0385,0.117625 0.0792,0.233389 0.12246,0.347681 0.0432,0.114282 0.0885,0.227204 0.13642,0.338152 0.0479,0.110959 0.0984,0.219985 0.15091,0.327601 0.0524,0.107615 0.10721,0.213799 0.16436,0.318081 0.0571,0.104282 0.11652,0.20657 0.17831,0.307519 0.0617,0.100918 0.12585,0.200394 0.19228,0.297999 0.0664,0.09765 0.13517,0.193697 0.20624,0.287969 0.0711,0.09427 0.1445,0.18699 0.2202,0.277928 0.0756,0.0909 0.15383,0.179761 0.23417,0.267356 0.0803,0.08763 0.16316,0.173585 0.24814,0.257847 0.085,0.08425 0.17193,0.166888 0.26156,0.247807 0.0895,0.08088 0.18179,0.16019 0.27606,0.237776 0.0942,0.07761 0.19112,0.153473 0.29003,0.227725 0.0989,0.07423 0.19991,0.146775 0.30345,0.217694 0.10352,0.07096 0.20924,0.140079 0.31742,0.207654 0.10819,0.06759 0.2191,0.133903 0.33192,0.198134 0.12055,0.06861 0.24095,0.134026 0.36146,0.196561 0.12049,0.06257 0.24102,0.122164 0.36146,0.178595 0.12044,0.05644 0.24053,0.109783 0.36092,0.160098 0.12039,0.05031 0.24112,0.09744 0.36145,0.141603 0.12035,0.04417 0.24066,0.08558 0.36094,0.123637 0.12028,0.03814 0.24015,0.07321 0.36038,0.105151 0.12023,0.032 0.24073,0.06073 0.36091,0.0866 0.12018,0.0259 0.24027,0.0489 0.36039,0.0687 0.12013,0.0197 0.24031,0.0365 0.36039,0.0502 0.12007,0.0137 0.23983,0.0241 0.35985,0.0317 0.12001,0.007 0.23988,0.0118 0.35985,0.0132 0.11996,0.001 0.23993,-9e-5 0.35985,-0.005 0.1199,-0.005 0.23999,-0.012 0.35984,-0.0227 0.11986,-0.0107 0.23951,-0.0248 0.35932,-0.0417 0.1198,-0.0169 0.23955,-0.0367 0.35931,-0.0597 0.11975,-0.023 0.23961,-0.0491 0.35931,-0.07822 0.11969,-0.02914 0.23831,-0.06258 0.35608,-0.100407 0.11778,-0.03783 0.23486,-0.08016 0.35072,-0.126817 0.11585,-0.04662 0.23087,-0.09734 0.34481,-0.152696 0.11394,-0.05542 0.22689,-0.115499 0.3389,-0.179649 0.11202,-0.06411 0.2229,-0.132624 0.33299,-0.205537 0.11011,-0.0729 0.21945,-0.150273 0.32762,-0.231958 0.10818,-0.08169 0.21546,-0.167931 0.32172,-0.258379 0.10626,-0.09049 0.21147,-0.185047 0.31581,-0.284267 0.10433,-0.09918 0.20748,-0.202705 0.3099,-0.310689 0.10237,-0.107973 0.20403,-0.220353 0.30453,-0.337098 0.10053,-0.116746 0.20004,-0.238011 0.29862,-0.36352 0.0986,-0.125519 0.19605,-0.255137 0.29271,-0.389419 0.0967,-0.134281 0.1926,-0.273317 0.28734,-0.41636 0.0948,-0.143044 0.18861,-0.290444 0.28144,-0.44225 0.0928,-0.151807 0.18462,-0.308102 0.27552,-0.468671 0.091,-0.16058 0.18064,-0.325229 0.26961,-0.49456 0.0807,-0.153391 0.15751,-0.305658 0.23043,-0.457045 0.0729,-0.151398 0.14157,-0.301844 0.20677,-0.451238 0.0652,-0.149403 0.12671,-0.298019 0.18422,-0.445419 0.0574,-0.14741 0.11132,-0.293674 0.16112,-0.43908 0.0498,-0.145416 0.096,-0.28985 0.13804,-0.433273 0.0421,-0.143422 0.08,-0.286036 0.11439,-0.427454 0.0345,-0.141429 0.0652,-0.281691 0.0919,-0.421126 0.0267,-0.139424 0.0498,-0.277857 0.0687,-0.415297 0.019,-0.137441 0.0337,-0.274053 0.0451,-0.40949 0.0113,-0.135447 0.0189,-0.269708 0.0226,-0.403161 0.004,-0.133453 0.003,-0.265873 -5.3e-4,-0.397332 -0.004,-0.13146 -0.0124,-0.26206 -0.0241,-0.391525 -0.0117,-0.129476 -0.0273,-0.257714 -0.0468,-0.385196 -0.0195,-0.127472 -0.0426,-0.25389 -0.0698,-0.379368 -0.0272,-0.125478 -0.0587,-0.250076 -0.0934,-0.37356 -0.035,-0.123494 -0.0735,-0.246263 -0.11601,-0.367753 -0.042,-0.122727 -0.0866,-0.243491 -0.13373,-0.362998 -0.0472,-0.119506 -0.097,-0.237724 -0.14931,-0.35401 -0.0523,-0.116296 -0.10734,-0.230905 -0.16489,-0.34398 -0.0576,-0.113075 -0.11771,-0.224596 -0.18045,-0.334461 -0.0628,-0.109854 -0.12809,-0.217776 -0.19604,-0.32442 -0.068,-0.106644 -0.13847,-0.21201 -0.21162,-0.315443 -0.0732,-0.103433 -0.14884,-0.20519 -0.22719,-0.305402 -0.0784,-0.100202 -0.1592,-0.198891 -0.24276,-0.295893 -0.0836,-0.09703 -0.16956,-0.192061 -0.25833,-0.285853 -0.0887,-0.09376 -0.18049,-0.186294 -0.27446,-0.276865 -0.0939,-0.09059 -0.19031,-0.179474 -0.28949,-0.266834 -0.0991,-0.08732 -0.20123,-0.173176 -0.30559,-0.257316 -0.10439,-0.08415 -0.21108,-0.166356 -0.32065,-0.24728 -0.10958,-0.08093 -0.22197,-0.160589 -0.33675,-0.238299 -0.11478,-0.07771 -0.23181,-0.153763 -0.3518,-0.228258 -0.11998,-0.0745 -0.2427,-0.147469 -0.3679,-0.218749 -0.10973,-0.06248 -0.21988,-0.1219 -0.32977,-0.178591 -0.10989,-0.05669 -0.21972,-0.110254 -0.32977,-0.161155 -0.11004,-0.0509 -0.22011,-0.09914 -0.33031,-0.144247 -0.11019,-0.04511 -0.22049,-0.08749 -0.33085,-0.12681 -0.11035,-0.03933 -0.22086,-0.07532 -0.33137,-0.108847 -0.11052,-0.03353 -0.22072,-0.0642 -0.3314,-0.09194 -0.11066,-0.02774 -0.22162,-0.05254 -0.33244,-0.0745 -0.11083,-0.02195 -0.22202,-0.04143 -0.333,-0.0576 -0.11098,-0.01617 -0.22186,-0.02925 -0.33299,-0.03963 -0.11114,-0.01037 -0.22224,-0.01761 -0.33354,-0.02219 -0.11128,-0.0046 -0.22262,-0.0064 -0.33407,-0.0053 z m 32.4019,0.860727 -15.33275,29.179621 h 15.33275 z"
         inkscape:export-filename="logo.png"
         inkscape:export-xdpi="41.051128"
         inkscape:export-ydpi="41.051128" />
      <g
         aria-label="t"
         transform="matrix(0.68722949,0.48799254,-0.68690605,0.96735513,1.3348139,-0.44493793)"
         id="text194"
         style="font-size:79.0238px;line-height:1.25;font-family:'Arial Black';-inkscape-font-specification:'Arial Black, ';stroke-width:0.264583"
         inkscape:transform-center-y="1.7797519"
         inkscape:transform-center-x="-1.3348139" />
      <g
         aria-label="d"
         transform="matrix(0.97659368,0.56522807,-0.407425,0.78815988,0,0)"
         id="text334"
         style="font-size:74.8431px;line-height:1.25;font-family:'Arial Black';-inkscape-font-specification:'Arial Black, ';stroke-width:0.264585" />
    </g>
  </g>
</svg>
