<?xml version="1.0" encoding="UTF-8" standalone="no"?>
<!-- Created with Inkscape (http://www.inkscape.org/) -->

<svg
   width="210mm"
   height="297mm"
   viewBox="0 0 210 297"
   version="1.1"
   id="svg5"
   inkscape:version="1.2.1 (9c6d41e4, 2022-07-14)"
   sodipodi:docname="icon-dashboard.svg"
   xml:space="preserve"
   inkscape:export-filename="parking.png"
   inkscape:export-xdpi="23.1132"
   inkscape:export-ydpi="23.1132"
   xmlns:inkscape="http://www.inkscape.org/namespaces/inkscape"
   xmlns:sodipodi="http://sodipodi.sourceforge.net/DTD/sodipodi-0.dtd"
   xmlns="http://www.w3.org/2000/svg"
   xmlns:svg="http://www.w3.org/2000/svg"><sodipodi:namedview
     id="namedview7"
     pagecolor="#ffffff"
     bordercolor="#666666"
     borderopacity="1.0"
     inkscape:showpageshadow="2"
     inkscape:pageopacity="0.0"
     inkscape:pagecheckerboard="0"
     inkscape:deskcolor="#d1d1d1"
     inkscape:document-units="mm"
     showgrid="false"
     inkscape:zoom="0.69400658"
     inkscape:cx="288.90216"
     inkscape:cy="400.57257"
     inkscape:window-width="1414"
     inkscape:window-height="708"
     inkscape:window-x="0"
     inkscape:window-y="25"
     inkscape:window-maximized="0"
     inkscape:current-layer="layer1" /><defs
     id="defs2" /><g
     inkscape:label="Layer 1"
     inkscape:groupmode="layer"
     id="layer1"><g
       id="g18974"
       inkscape:export-filename="overtime.png"
       inkscape:export-xdpi="96"
       inkscape:export-ydpi="96"><rect
         style="fill:none;stroke:none;stroke-width:0.264583;stroke-linejoin:round;stroke-dasharray:none"
         id="rect1396"
         width="52.916668"
         height="52.916668"
         x="71.927826"
         y="40.890491"
         rx="0"
         ry="0" /><rect
         style="fill:#008080;stroke:#000000;stroke-width:1.26499;stroke-linejoin:round"
         id="rect1209"
         width="33.136185"
         height="18.325222"
         x="83.698067"
         y="50.654789"
         ry="4.948669"
         rx="4.2078609" /><rect
         style="fill:#008080;stroke:#000000;stroke-width:1.265;stroke-linejoin:round"
         id="rect1213"
         width="26.160145"
         height="8.2305498"
         x="87.565178"
         y="58.790543"
         ry="1.2446494"
         rx="7.9118862" /><rect
         style="fill:#008080;stroke:#000000;stroke-width:1.265;stroke-linejoin:round"
         id="rect1207"
         width="33.136185"
         height="15.161539"
         x="83.641167"
         y="48.544537"
         ry="4.8252015"
         rx="3.2201166" /><path
         style="fill:#800080;stroke:#000000;stroke-width:1.265;stroke-linejoin:round"
         id="path1215"
         sodipodi:type="arc"
         sodipodi:cx="86.52813"
         sodipodi:cy="80.466133"
         sodipodi:rx="10.954918"
         sodipodi:ry="10.954918"
         sodipodi:start="5.6168042"
         sodipodi:end="5.5986587"
         sodipodi:open="true"
         sodipodi:arc-type="chord"
         d="m 95.139394,73.694401 a 10.954918,10.954918 0 0 1 -1.800539,15.352189 10.954918,10.954918 0 0 1 -15.360198,-1.730877 10.954918,10.954918 0 0 1 1.66118,-15.367892 10.954918,10.954918 0 0 1 15.37527,1.591448 z" /><rect
         style="fill:#ffffff;stroke:#ffffff;stroke-width:0.264583;stroke-linejoin:round;stroke-dasharray:none"
         id="rect1221"
         width="2.1118057"
         height="9.5266409"
         x="79.049866"
         y="-94.541794"
         rx="4.2078609"
         ry="0.36915451"
         transform="rotate(90)" /><rect
         style="fill:#ffffff;stroke:#ffffff;stroke-width:0.264583;stroke-linejoin:round;stroke-dasharray:none"
         id="rect1254"
         width="2.1118057"
         height="9.5266409"
         x="-87.130203"
         y="-81.164909"
         rx="4.2078609"
         ry="0.36915451"
         transform="scale(-1)" /></g><g
       id="g18997"
       inkscape:export-filename="pinjam.png"
       inkscape:export-xdpi="96"
       inkscape:export-ydpi="96"><rect
         style="fill:none;stroke:none;stroke-width:0.264583;stroke-linejoin:round;stroke-dasharray:none"
         id="rect1398"
         width="52.916668"
         height="52.916668"
         x="11.787748"
         y="99.573685"
         rx="0"
         ry="0" /><rect
         style="fill:#008080;stroke:#000000;stroke-width:1.32292;stroke-linejoin:round;stroke-dasharray:none"
         id="rect1262"
         width="16.95311"
         height="3.9276261"
         x="-141.94055"
         y="-6.1896448"
         rx="0.36915219"
         ry="0.36915207"
         transform="matrix(-0.18730024,-0.98230271,0.98162361,-0.19082738,0,0)" /><rect
         style="fill:#008080;stroke:#000000;stroke-width:1.32292;stroke-linejoin:round;stroke-dasharray:none"
         id="rect1264"
         width="16.95311"
         height="3.9276261"
         x="-141.94055"
         y="-1.1283426"
         rx="0.36915219"
         ry="0.36915207"
         transform="matrix(-0.18730024,-0.98230271,0.98162361,-0.19082738,0,0)" /><rect
         style="fill:#008080;stroke:#000000;stroke-width:1.32292;stroke-linejoin:round;stroke-dasharray:none"
         id="rect1266"
         width="16.95311"
         height="3.9276261"
         x="-141.94055"
         y="3.9329748"
         rx="0.36915219"
         ry="0.36915207"
         transform="matrix(-0.18730024,-0.98230271,0.98162361,-0.19082738,0,0)" /><rect
         style="fill:#008080;stroke:#000000;stroke-width:1.32432;stroke-linejoin:round;stroke-dasharray:none"
         id="rect1256"
         width="19.71167"
         height="3.9437423"
         x="0.077606291"
         y="125.46477"
         rx="0.3686544"
         ry="0.36885849"
         transform="matrix(0.98351828,-0.18080874,0.11653381,0.99318673,0,0)" /><rect
         style="fill:#008080;stroke:#000000;stroke-width:1.32409;stroke-linejoin:round;stroke-dasharray:none"
         id="rect1258"
         width="20.024721"
         height="3.9449556"
         x="-5.3316627"
         y="138.26088"
         rx="0.3683885"
         ry="0.3687157"
         transform="matrix(0.9754066,-0.22041318,0.16187167,0.98681182,0,0)" /><rect
         style="fill:#008080;stroke:#000000;stroke-width:1.32292;stroke-linejoin:round;stroke-dasharray:none"
         id="rect1260"
         width="16.95311"
         height="3.9276261"
         x="-142.18192"
         y="-10.008439"
         rx="0.36915219"
         ry="0.36915207"
         transform="matrix(-0.18730024,-0.98230271,0.98162361,-0.19082738,0,0)" /><rect
         style="fill:#008080;stroke:#000000;stroke-width:1.32292;stroke-linejoin:round;stroke-dasharray:none"
         id="rect1270"
         width="16.95311"
         height="3.9276261"
         x="-142.19756"
         y="8.0861883"
         rx="0.36915219"
         ry="0.36915207"
         transform="matrix(-0.18730024,-0.98230271,0.98162361,-0.19082738,0,0)" /><rect
         style="fill:#0066ff;stroke:#000000;stroke-width:1.32292;stroke-linejoin:round;stroke-dasharray:none"
         id="rect1282"
         width="31.558338"
         height="2.9069765"
         x="-0.8131237"
         y="143.96701"
         rx="0.36640915"
         ry="0.33564579"
         transform="matrix(0.99459328,-0.10384707,0.10614966,0.99435016,0,0)" /><rect
         style="fill:#0066ff;stroke:#000000;stroke-width:1.32295;stroke-linejoin:round;stroke-dasharray:none"
         id="rect1284"
         width="29.679609"
         height="2.9050634"
         x="116.44395"
         y="-28.983921"
         rx="0.36626536"
         ry="0.33555138"
         transform="matrix(0.11042063,0.99388495,-0.99500501,0.09982496,0,0)" /><path
         style="fill:#008080;stroke:#000000;stroke-width:1.32292;stroke-linejoin:round;stroke-dasharray:none"
         id="path1280"
         sodipodi:type="arc"
         sodipodi:cx="29.052923"
         sodipodi:cy="145.91238"
         sodipodi:rx="4.6539059"
         sodipodi:ry="4.6539059"
         sodipodi:start="5.6168042"
         sodipodi:end="5.5986587"
         sodipodi:open="true"
         sodipodi:arc-type="chord"
         d="m 32.71119,143.03559 a 4.6539059,4.6539059 0 0 1 -0.764911,6.52197 4.6539059,4.6539059 0 0 1 -6.525372,-0.73531 4.6539059,4.6539059 0 0 1 0.705708,-6.52864 4.6539059,4.6539059 0 0 1 6.531775,0.67608 z" /><path
         style="fill:#800080;stroke:#000000;stroke-width:1.32292;stroke-linejoin:round;stroke-dasharray:none"
         id="path1286"
         sodipodi:type="arc"
         sodipodi:cx="53.856491"
         sodipodi:cy="111.41872"
         sodipodi:rx="4.1063876"
         sodipodi:ry="4.3801465"
         sodipodi:start="5.6168042"
         sodipodi:end="5.5986587"
         sodipodi:open="true"
         sodipodi:arc-type="chord"
         d="m 57.084374,108.71115 a 4.1063876,4.3801465 0 0 1 -0.674922,6.13832 4.1063876,4.3801465 0 0 1 -5.757681,-0.69206 4.1063876,4.3801465 0 0 1 0.622683,-6.1446 4.1063876,4.3801465 0 0 1 5.763331,0.63631 z" /><path
         style="fill:#800080;stroke:#000000;stroke-width:1.32292;stroke-linecap:butt;stroke-linejoin:miter;stroke-dasharray:none;stroke-opacity:1"
         d="m 39.183477,123.70119 16.69931,-7.3915 -1.64255,15.33052 9.03405,12.59292 -7.66526,4.92766 4.10639,-4.6539 -9.30781,-10.95037 -2.46383,16.15179 -7.66526,-1.36879 5.47518,-1.64256 2.19008,-23.26953 -8.48654,3.01135 z"
         id="path1288"
         sodipodi:nodetypes="ccccccccccccc" /></g><g
       id="g19006"
       inkscape:export-filename="idcard.png"
       inkscape:export-xdpi="96"
       inkscape:export-ydpi="96"><rect
         style="fill:none;stroke:none;stroke-width:0.264583;stroke-linejoin:round;stroke-dasharray:none"
         id="rect2027"
         width="52.916668"
         height="52.916668"
         x="71.054459"
         y="99.573685"
         rx="0"
         ry="0" /><path
         id="rect1746"
         style="fill:#2a7fff;stroke:#000000;stroke-width:1.32292;stroke-linejoin:round"
         d="m 77.901369,118.62651 13.21553,-3.13371 13.490821,3.13371 v 32.64276 H 77.901369 Z"
         sodipodi:nodetypes="cccccc" /><rect
         style="fill:#214478;stroke:#000000;stroke-width:1.32292;stroke-linejoin:round"
         id="rect1748"
         width="18.431339"
         height="25.634386"
         x="82.031219"
         y="122.83982" /><path
         id="path1804"
         style="fill:#ffffff;stroke:#000000;stroke-width:1.32292;stroke-linejoin:round"
         d="m 96.111194,139.65236 c 2.209328,2.66945 3.278172,3.44919 0.478707,5.56048 -2.799451,2.11129 -6.86841,-0.9681 -10.33981,-0.24029 -3.490196,0.73176 -2.103853,-4.16836 0.675334,-6.30369 2.779189,-2.13534 6.852144,-1.73478 9.112099,0.89615 z"
         sodipodi:nodetypes="cssscc" /><path
         style="fill:#ffffff;stroke:#000000;stroke-width:1.32292;stroke-linejoin:round"
         id="path1802"
         sodipodi:type="arc"
         sodipodi:cx="91.116898"
         sodipodi:cy="134.77853"
         sodipodi:rx="3.8545287"
         sodipodi:ry="3.9130511"
         sodipodi:start="5.6168042"
         sodipodi:end="5.5986587"
         sodipodi:open="true"
         sodipodi:arc-type="chord"
         d="m 94.146803,132.3597 a 3.8545287,3.9130511 0 0 1 -0.633526,5.48374 3.8545287,3.9130511 0 0 1 -5.404543,-0.61826 3.8545287,3.9130511 0 0 1 0.584492,-5.48935 3.8545287,3.9130511 0 0 1 5.409846,0.56846 z" /><path
         style="fill:#ffffff;stroke:#000000;stroke-width:1.32292;stroke-linejoin:round"
         id="path1960"
         sodipodi:type="arc"
         sodipodi:cx="90.979233"
         sodipodi:cy="118.12047"
         sodipodi:rx="0.96363217"
         sodipodi:ry="1.1180146"
         sodipodi:start="5.6168042"
         sodipodi:end="5.5986587"
         sodipodi:open="true"
         sodipodi:arc-type="chord"
         d="m 91.736709,117.42937 a 0.96363217,1.1180146 0 0 1 -0.158381,1.56678 0.96363217,1.1180146 0 0 1 -1.351136,-0.17664 0.96363217,1.1180146 0 0 1 0.146123,-1.56839 0.96363217,1.1180146 0 0 1 1.352461,0.16242 z" /><path
         style="fill:#008080;stroke:#000000;stroke-width:0.264583px;stroke-linecap:butt;stroke-linejoin:miter;stroke-opacity:1"
         d="m 90.991724,117.76034 c -0.29128,-4.25782 4.75563,-10.94221 6.637451,-12.59735 2.101538,-1.84839 4.600065,1.9835 6.902945,1.51168 3.39468,-0.69551 6.44478,-8.309248 9.69069,-6.29869 4.25949,2.63841 6.93065,12.53392 7.69945,20.91161 0.55071,6.00113 0.0657,14.03334 -2.52223,17.63629 -2.67811,3.72849 -6.88282,1.63432 -9.95619,-0.75584 -2.4348,-1.89354 -3.97654,-6.55393 -5.84097,-10.07788 -2.04162,-3.85884 -3.22467,-9.80248 -5.840955,-12.09345 -1.125724,-0.98576 -6.236161,3.85053 -6.371951,1.51168 1.76085,-2.20483 6.734768,-5.85683 8.761426,-4.78699 4.88386,2.5781 5.91094,17.09751 10.61994,20.65965 2.09797,1.58702 4.95933,2.05753 6.77021,-0.5039 1.53715,-2.17426 2.12347,-6.72627 1.85849,-10.32982 -0.46149,-6.27581 -2.54885,-13.57176 -5.70822,-15.62071 -2.50292,-1.62322 -4.92721,4.21105 -7.5667,4.53504 -2.51194,0.30833 -4.97689,-3.55727 -7.433951,-2.51947 -1.797571,0.75925 -7.462335,12.28417 -7.699435,8.81815 z"
         id="path2025"
         sodipodi:nodetypes="csssssssscsssssssc" /></g><g
       id="g19024"
       inkscape:export-filename="parkir.png"
       inkscape:export-xdpi="96"
       inkscape:export-ydpi="96"><rect
         style="fill:none;stroke:none;stroke-width:0.264583;stroke-linejoin:round;stroke-dasharray:none"
         id="rect2755"
         width="52.916668"
         height="52.916668"
         x="133.53731"
         y="100.58147"
         rx="0"
         ry="0" /><path
         style="fill:#ffffff;stroke-width:1"
         d="m 133.78384,153.43569 52.35257,-25.84575 -31.36095,25.58986 z"
         id="path6570"
         sodipodi:nodetypes="cccc" /><g
         id="g7705"
         transform="matrix(0.97440315,0,0,1.017658,1.2011503,-2.9084173)"
         style="stroke-width:1.00422"><rect
           style="fill:#5f8dd3;fill-opacity:1;stroke:#000000;stroke-width:0.2657"
           id="rect7440"
           width="21.109621"
           height="11.025826"
           x="160.23788"
           y="123.39849"
           ry="2.6861997"
           rx="2.8054433" /><rect
           style="fill:#ffffff;fill-opacity:1;stroke:#000000;stroke-width:0.2657"
           id="rect7512"
           width="18.105633"
           height="8.5153923"
           x="161.73988"
           y="124.65372"
           ry="2.6861997"
           rx="2.8054433" /><rect
           style="fill:#000000;fill-opacity:1;stroke:#000000;stroke-width:0.2657"
           id="rect7452"
           width="6.6456213"
           height="11.342769"
           x="179.93825"
           y="134.74001"
           ry="1.1766946"
           rx="1.147113" /><rect
           style="fill:#241c1c;fill-opacity:1;stroke:#000000;stroke-width:0.2657"
           id="rect7448"
           width="6.6456213"
           height="10.558257"
           x="155.34496"
           y="135.52454"
           ry="1.1766946"
           rx="1.147113" /><rect
           style="fill:#5f8dd3;fill-opacity:1;stroke:#000000;stroke-width:0.2657"
           id="rect7436"
           width="28.927998"
           height="14.088556"
           x="156.32869"
           y="128.91138"
           ry="2.6861997"
           rx="2.8054433" /><path
           style="fill:#ffffff;fill-opacity:1;stroke:#000000;stroke-width:0.2657"
           id="path7442"
           sodipodi:type="arc"
           sodipodi:cx="159.916"
           sodipodi:cy="134.47253"
           sodipodi:rx="2.4284739"
           sodipodi:ry="2.450182"
           sodipodi:start="5.6168042"
           sodipodi:end="5.5986587"
           sodipodi:open="true"
           sodipodi:arc-type="chord"
           d="m 161.82494,132.95797 a 2.4284739,2.450182 0 0 1 -0.39915,3.43367 2.4284739,2.450182 0 0 1 -3.40503,-0.38713 2.4284739,2.450182 0 0 1 0.36825,-3.43719 2.4284739,2.450182 0 0 1 3.40837,0.35595 z" /><rect
           style="fill:#800000;fill-opacity:1;stroke:#000000;stroke-width:0.2657"
           id="rect7506"
           width="13.217545"
           height="0.70605969"
           x="164.31851"
           y="138.33482"
           rx="2.8054433"
           ry="0.47635162" /><rect
           style="fill:#162d50;fill-opacity:1;stroke:#000000;stroke-width:0.2657"
           id="rect7508"
           width="13.217545"
           height="0.70605969"
           x="164.31851"
           y="138.33482"
           rx="2.8054433"
           ry="0.47635162" /><rect
           style="fill:#162d50;fill-opacity:1;stroke:#000000;stroke-width:0.2657"
           id="rect7510"
           width="13.217545"
           height="0.70605969"
           x="164.31851"
           y="139.87624"
           rx="2.8054433"
           ry="0.47635162" /><path
           style="fill:#ffffff;fill-opacity:1;stroke:#000000;stroke-width:0.2657"
           id="path7693"
           sodipodi:type="arc"
           sodipodi:cx="180.55322"
           sodipodi:cy="134.47253"
           sodipodi:rx="2.4284739"
           sodipodi:ry="2.450182"
           sodipodi:start="5.6168042"
           sodipodi:end="5.5986587"
           sodipodi:open="true"
           sodipodi:arc-type="chord"
           d="m 182.46216,132.95797 a 2.4284739,2.450182 0 0 1 -0.39914,3.43367 2.4284739,2.450182 0 0 1 -3.40503,-0.38713 2.4284739,2.450182 0 0 1 0.36824,-3.43719 2.4284739,2.450182 0 0 1 3.40838,0.35595 z" /></g><rect
         style="fill:#ffb380;stroke:#000000;stroke-width:1.32292;stroke-linejoin:round"
         id="rect2821"
         width="7.8975744"
         height="18.846586"
         x="-145.52019"
         y="127.25737"
         transform="scale(-1,1)" /><rect
         style="fill:#ffffff;stroke:#000000;stroke-width:1.32292;stroke-linejoin:round"
         id="rect2823"
         width="13.605137"
         height="2.0155756"
         x="-166.58391"
         y="130.1147"
         transform="scale(-1,1)" /><rect
         style="fill:#ff2a2a;stroke:#000000;stroke-width:1.32292;stroke-linejoin:round"
         id="rect6708"
         width="13.605137"
         height="2.0155756"
         x="-153.88408"
         y="130.1147"
         transform="scale(-1,1)" /></g><g
       id="g18982"
       inkscape:export-filename="akses.png"
       inkscape:export-xdpi="96"
       inkscape:export-ydpi="96"><rect
         style="fill:none;stroke:none;stroke-width:0.264583;stroke-linejoin:round;stroke-dasharray:none"
         id="rect18898"
         width="52.916668"
         height="52.916668"
         x="134.64188"
         y="41.462353"
         rx="0"
         ry="0" /><g
         id="g18896"><rect
           style="fill:#44aa00;fill-opacity:1;stroke:#000000;stroke-width:0.79375;stroke-dasharray:none"
           id="rect18866"
           width="16.73514"
           height="26.822268"
           x="142.03638"
           y="47.690346"
           rx="0.54082936"
           ry="1.0059872" /><rect
           style="fill:#e9ddaf;fill-opacity:1;stroke:#000000;stroke-width:0.794076;stroke-dasharray:none"
           id="rect18868"
           width="13.545654"
           height="22.067972"
           x="57.04768"
           y="151.91389"
           rx="0.53993529"
           ry="1.0043944"
           transform="matrix(0.68275227,-0.73064994,0.70243443,0.71174846,0,0)" /><path
           style="fill:#ffffff;stroke:#000000;stroke-width:0.264583px;stroke-linecap:butt;stroke-linejoin:miter;stroke-opacity:1"
           d="m 176.03775,90.92583 -2.00152,-3.812404 -1.62027,-0.190619 -1.42965,-1.048411 -1.9062,-2.382752 h -1.04841 l -0.9531,-0.857791 -1.33434,0.28593 -1.62027,-0.47655 0.66717,-3.621784 0.85779,-1.620271 -1.90621,-4.288955 1.62028,-1.810891 5.14674,6.290466 2.66868,-2.573373 -3.14523,-1.715581 -0.0953,-1.524962 -2.85931,-3.431163 9.14977,3.431163 3.52647,11.151281 2.57337,3.717094 z"
           id="path18886"
           sodipodi:nodetypes="cccccccccccccccccccccc" /><path
           style="fill:#000000;stroke-width:1"
           d="m 174.57815,89.456707 -1.19496,-1.692392 -0.46653,-0.08801 c -1.28648,-0.242701 -2.51159,-1.183756 -3.81784,-2.932645 l -0.50083,-0.670547 -0.5077,0.01619 c -0.3206,0.01022 -0.60426,-0.02401 -0.76969,-0.09289 -0.28161,-0.117249 -0.75351,-0.589389 -0.83064,-0.831051 l -0.0472,-0.148007 -0.33477,0.147268 c -0.50399,0.221713 -1.35476,0.170951 -1.75471,-0.104696 -0.36084,-0.248686 -0.60414,-0.666205 -0.6547,-1.123505 -0.0212,-0.191521 0.0279,-0.788967 0.1091,-1.327659 0.0812,-0.538691 0.14105,-0.985624 0.13303,-0.993184 -0.008,-0.0076 -0.49704,0.437405 -1.08672,0.988811 -0.95618,0.894124 -1.11261,1.012211 -1.44629,1.091819 -0.73525,0.175413 -1.20646,-0.04024 -2.08821,-0.955698 -0.32148,-0.333767 -1.69965,-1.74412 -3.0626,-3.134117 l -2.47808,-2.527267 -5.60328,-0.0016 c -5.30629,-0.0015 -5.61918,-0.0088 -5.90303,-0.136979 -0.16487,-0.07446 -0.37878,-0.245559 -0.47535,-0.380219 l -0.17559,-0.244836 V 61.139033 47.962579 l 0.15078,-0.200839 c 0.0829,-0.110461 0.24165,-0.268316 0.35271,-0.350786 0.20072,-0.149047 0.24993,-0.150054 8.18601,-0.167468 l 7.98408,-0.01752 0.28845,0.163015 c 0.15864,0.08966 0.35609,0.277542 0.43877,0.41752 0.14748,0.249656 0.15104,0.366166 0.18691,6.115965 l 0.0365,5.861461 3.90059,3.98157 3.90059,3.981572 4.14368,1.382566 c 2.27903,0.760411 4.30126,1.46692 4.49386,1.570019 0.40333,0.215908 0.85574,0.676688 1.0617,1.081337 0.0783,0.153976 0.88988,2.652066 1.80335,5.551311 0.91347,2.899245 1.69255,5.330239 1.73128,5.40221 0.0387,0.07197 0.55032,0.808947 1.13685,1.637721 0.58653,0.828775 1.12845,1.594613 1.20427,1.701864 l 0.13784,0.194999 -0.41753,0.297351 c -0.22965,0.163543 -0.44277,0.28852 -0.4736,0.277727 -0.0308,-0.0108 -0.63315,-0.830115 -1.33851,-1.820714 l -1.28244,-1.801089 -1.68856,-5.362531 c -0.92872,-2.949391 -1.76897,-5.500751 -1.86723,-5.669686 -0.10604,-0.182321 -0.30972,-0.383543 -0.50113,-0.495101 -0.17736,-0.10337 -1.69642,-0.643692 -3.37568,-1.20072 l -3.0532,-1.012776 0.28789,0.307583 c 0.15834,0.16917 0.57113,0.602261 0.91731,0.962423 0.72744,0.756819 0.83466,0.991825 0.77697,1.703061 l -0.0389,0.479048 1.48896,0.829943 1.48896,0.829944 -0.60044,0.646456 c -0.99855,1.075088 -1.49286,1.660533 -2.00143,2.370456 -0.26667,0.372244 -0.50918,0.650425 -0.53892,0.618181 -0.0297,-0.03225 -0.37678,-0.500445 -0.7712,-1.040444 -1.56044,-2.136346 -3.58161,-4.771562 -3.94924,-5.149028 -0.34592,-0.355177 -0.41193,-0.393375 -0.61131,-0.35372 -0.331,0.06583 -0.58904,0.260199 -0.81419,0.613255 -0.1775,0.278346 -0.19216,0.345707 -0.12707,0.583893 0.12149,0.444582 1.62182,3.335725 3.97046,7.651047 0.63323,1.163472 0.90417,1.735307 0.93757,1.978754 0.0651,0.474685 0.2626,0.85971 0.83149,1.621237 1.19754,1.603077 2.29153,2.404572 3.41125,2.499229 l 0.54675,0.04622 1.36322,1.920609 c 0.74978,1.056335 1.33718,1.942471 1.30534,1.969189 -0.12963,0.108795 -0.81068,0.582822 -0.83555,0.581564 -0.0147,-7.49e-4 -0.56449,-0.762932 -1.22173,-1.693748 z m -6.48162,-6.719677 c -0.0516,-0.273512 -0.2348,-0.672622 -0.42386,-0.923403 -0.0947,-0.125551 -0.10884,-0.09315 -0.15489,0.35382 -0.0623,0.604962 0.0503,0.838927 0.40371,0.838927 0.22087,0 0.22473,-0.0059 0.17504,-0.269344 z m -2.24119,-0.679983 c 0.48089,-0.268792 0.69262,-0.698276 0.78026,-1.582754 l 0.0484,-0.488574 -0.53493,-0.999762 c -0.29422,-0.549869 -0.5672,-0.989065 -0.60665,-0.97599 -0.24042,0.0797 -0.33339,0.430106 -0.55883,2.106208 -0.21763,1.618055 -0.22481,1.73949 -0.11308,1.909086 0.15317,0.232476 0.59996,0.246896 0.98482,0.03178 z m -2.68173,-3.285078 c 1.03974,-1.00379 1.88121,-1.844414 1.86994,-1.868054 -0.0113,-0.02364 -0.30875,-0.587211 -0.66107,-1.252383 -1.11835,-2.111475 -1.34665,-2.696888 -1.24943,-3.203755 0.16313,-0.850423 1.0579,-1.711669 1.92088,-1.848904 0.1744,-0.02774 0.44347,-0.0081 0.64593,0.04727 0.44675,0.122061 1.17773,0.840047 2.13119,2.09331 l 0.68219,0.896689 0.57677,-0.57514 c 0.83383,-0.831459 0.84778,-0.774703 -0.53845,-2.190392 -0.61338,-0.626413 -2.84105,-2.905749 -4.95038,-5.065195 -2.10934,-2.159445 -4.38299,-4.482626 -5.05257,-5.162625 -0.66958,-0.679998 -1.63906,-1.669996 -2.15441,-2.199994 -0.84229,-0.866238 -0.96223,-0.963635 -1.18667,-0.963635 -0.22602,0 -0.38952,0.136375 -1.72563,1.439371 -0.81177,0.791655 -2.70179,2.628146 -4.20003,4.081093 -2.40915,2.33631 -2.72409,2.667405 -2.72409,2.863886 0,0.247727 0.0448,0.298433 2.29964,2.599239 0.72616,0.740986 1.91294,1.951893 2.6373,2.690902 0.72435,0.739011 2.48317,2.538197 3.90848,3.998195 1.4253,1.459996 3.24019,3.305196 4.03309,4.100443 1.34005,1.344033 1.4559,1.442343 1.64425,1.395328 0.12762,-0.03185 0.90255,-0.726297 2.09307,-1.87565 z m 7.61562,-2.58376 c 0.0859,-0.11 0.36217,-0.435897 0.61385,-0.724216 0.25168,-0.288319 0.45674,-0.550137 0.45568,-0.581817 -8.6e-4,-0.03168 -0.43266,-0.298921 -0.95913,-0.593868 l -0.95721,-0.536267 -0.3861,0.390813 -0.38609,0.390814 0.69306,0.92727 c 0.38117,0.509999 0.71029,0.927271 0.73138,0.927271 0.0211,0 0.10863,-0.09 0.19456,-0.2 z M 151.9284,73.170034 c -0.44356,-0.449999 -1.43096,-1.45636 -2.19424,-2.236358 -0.76328,-0.779998 -1.96712,-2.007268 -2.67519,-2.727266 -0.71334,-0.725341 -1.3567,-1.445625 -1.44278,-1.615281 -0.21536,-0.424459 -0.21138,-1.058398 0.009,-1.465593 0.0984,-0.181594 0.97335,-1.083158 2.17561,-2.241701 1.10609,-1.065869 2.99164,-2.889776 4.19011,-4.053125 1.19848,-1.16335 2.31432,-2.188818 2.47964,-2.278818 0.36006,-0.196016 0.95311,-0.218606 1.35858,-0.05175 0.16343,0.06725 0.67303,0.509309 1.27743,1.108115 l 1.00554,0.996229 V 53.460018 48.31555 h -7.7152 -7.71518 v 12.836333 12.836333 h 5.02647 5.02648 z M 144.76611,63.05587 c -0.85801,-0.414174 -1.25193,-1.324033 -0.97345,-2.248411 0.11664,-0.387155 0.64248,-0.955081 1.02773,-1.109976 0.89638,-0.360405 1.93997,0.01747 2.37206,0.85891 0.3666,0.713876 0.22442,1.588367 -0.34911,2.147193 -0.36873,0.359291 -0.63079,0.46857 -1.19967,0.500267 -0.42979,0.02395 -0.57057,2.18e-4 -0.87756,-0.147983 z m 1.22805,-1.068765 c 0.38842,-0.303856 0.40675,-0.8084 0.0412,-1.134275 -0.2369,-0.211183 -0.48142,-0.256649 -0.7593,-0.141182 -0.77426,0.321728 -0.54206,1.409914 0.3029,1.419472 0.1253,0.0015 0.31214,-0.06339 0.41521,-0.144015 z m -1.07247,-3.160175 c -0.42222,-0.149677 -0.78857,-0.479449 -1.02118,-0.919229 -0.17987,-0.340062 -0.20369,-0.454991 -0.1793,-0.864901 0.032,-0.53659 0.18042,-0.892291 0.51423,-1.231837 0.45769,-0.465562 1.05672,-0.646575 1.70013,-0.51374 1.05255,0.217306 1.69007,1.270447 1.39187,2.299285 -0.0983,0.33902 -0.20266,0.504097 -0.50172,0.79327 -0.5429,0.524972 -1.21864,0.680118 -1.90403,0.437152 z m 1.07247,-1.130723 c 0.29275,-0.229007 0.38195,-0.588741 0.22669,-0.914129 -0.1445,-0.302831 -0.52551,-0.504344 -0.81633,-0.431752 -0.30175,0.07532 -0.60221,0.428832 -0.59926,0.705062 0.007,0.644279 0.70409,1.020068 1.1889,0.640819 z M 145.261,54.058448 c -0.47482,-0.09537 -0.82805,-0.288345 -1.19738,-0.654146 -1.0814,-1.071072 -0.64901,-3.025151 0.78767,-3.559722 0.39541,-0.147128 0.50415,-0.149641 5.64373,-0.130437 l 5.24055,0.01958 0.32908,0.169983 c 0.99682,0.514893 1.48095,1.662454 1.13648,2.693848 -0.16651,0.49856 -0.7227,1.100177 -1.22642,1.326573 l -0.3854,0.173221 -5.00939,0.01164 c -2.75516,0.0064 -5.14868,-0.01635 -5.31892,-0.05054 z m 10.35723,-1.197456 c 0.74054,-0.433786 0.78751,-1.42393 0.0899,-1.895345 l -0.26247,-0.177377 h -5.03261 c -4.17972,0 -5.06608,0.01732 -5.23009,0.102181 -0.48344,0.250147 -0.73476,0.780788 -0.602,1.27108 0.0941,0.347718 0.43388,0.707873 0.75666,0.802148 0.13629,0.03981 2.26538,0.06278 5.1326,0.0554 4.75612,-0.01226 4.90697,-0.01689 5.148,-0.158083 z"
           id="path18812"
           sodipodi:nodetypes="ccsscssscsssscsssscssscccssscssscccssssssscssscsssscssscccsssssssssssscsssccsscsssccssssssscssscscsssssssssssssssssscscccssssssssssssscccccccccscssssscssscssssssssssssssssssscsssccsssscssssss" /></g></g><g
       id="g18965"
       inkscape:export-filename="komplain.png"
       inkscape:export-xdpi="96"
       inkscape:export-ydpi="96"><rect
         style="fill:none;stroke:none;stroke-width:0.264583;stroke-linejoin:round;stroke-dasharray:none"
         id="rect1342"
         width="52.916668"
         height="52.916668"
         x="10.864365"
         y="40.983528"
         rx="0"
         ry="0" /><path
         id="path1144"
         style="fill:#800080;stroke:#000000;stroke-width:1.26501;stroke-linejoin:round"
         d="m 56.620367,51.078211 c 5.699018,4.814259 4.53735,10.621329 -2.205311,14.035867 -1.074448,0.544076 -3.533411,0.272564 -3.643243,1.436351 -0.323765,3.430673 -5.878085,9.314768 -6.261506,10.026969 -1.14275,2.122707 2.697969,-9.167868 1.453142,-9.000224 -9.028895,1.215887 -19.441345,-1.000306 -25.096498,-5.691019 -6.696432,-5.554422 -4.203495,-12.489151 5.577243,-15.514532 9.780712,-3.025381 23.170295,-1.003447 29.955463,4.523512 z"
         sodipodi:nodetypes="csssssscc" /><path
         id="path1147"
         style="fill:#008080;stroke:#000000;stroke-width:1.265;stroke-linejoin:round"
         d="m 39.635347,78.356067 c 3.888836,4.021639 3.942776,9.420901 -0.984766,12.601651 -4.927542,3.180751 -11.990358,0.272997 -16.916669,-1.046207 -4.754086,-1.273078 -3.432992,-15.230751 1.732886,-13.037127 10.649872,4.522336 8.884139,0.200792 16.038899,1.350086 z"
         sodipodi:nodetypes="cssscc" /><text
         xml:space="preserve"
         style="font-size:23.5574px;line-height:1.25;font-family:'Arial Black';-inkscape-font-specification:'Arial Black, ';fill:#ffffff;stroke-width:0.264583"
         x="24.065613"
         y="68.863831"
         id="text1205"
         transform="scale(1.0749053,0.93031453)"><tspan
           sodipodi:role="line"
           id="tspan1203"
           style="fill:#ffffff;stroke-width:0.264583"
           x="24.065613"
           y="68.863831">#!</tspan></text><path
         style="fill:#008080;stroke:#000000;stroke-width:1.265;stroke-linejoin:round"
         id="path979"
         sodipodi:type="arc"
         sodipodi:cx="31.112169"
         sodipodi:cy="72.246994"
         sodipodi:rx="5.5032473"
         sodipodi:ry="5.5032473"
         sodipodi:start="5.6168042"
         sodipodi:end="5.5986587"
         sodipodi:open="true"
         sodipodi:arc-type="chord"
         d="m 35.438073,68.845187 a 5.5032473,5.5032473 0 0 1 -0.904508,7.712234 5.5032473,5.5032473 0 0 1 -7.716258,-0.869513 5.5032473,5.5032473 0 0 1 0.834501,-7.720123 5.5032473,5.5032473 0 0 1 7.723829,0.799471 z" /></g></g></svg>
